<mxfile host="app.diagrams.net" modified="2023-11-06T19:27:21.611Z" agent="Mozilla/5.0 (Windows NT 10.0; Win64; x64) AppleWebKit/537.36 (KHTML, like Gecko) Chrome/118.0.0.0 Safari/537.36" etag="SgpMdcAHEMbqrjqJSIph" version="22.0.8" type="device">
  <diagram name="Trang-1" id="QALuFVpHKuyMbBD8s_kB">
    <mxGraphModel dx="1434" dy="1965" grid="1" gridSize="10" guides="1" tooltips="1" connect="1" arrows="1" fold="1" page="1" pageScale="1" pageWidth="827" pageHeight="1169" math="0" shadow="0">
      <root>
        <mxCell id="0" />
        <mxCell id="1" parent="0" />
        <mxCell id="oqNWsSmZMiWXag8KqsjX-2" value="" style="edgeStyle=orthogonalEdgeStyle;rounded=0;orthogonalLoop=1;jettySize=auto;html=1;" edge="1" parent="1" source="oqNWsSmZMiWXag8KqsjX-3" target="oqNWsSmZMiWXag8KqsjX-5">
          <mxGeometry relative="1" as="geometry" />
        </mxCell>
        <mxCell id="oqNWsSmZMiWXag8KqsjX-3" value="Start" style="ellipse;whiteSpace=wrap;html=1;" vertex="1" parent="1">
          <mxGeometry x="300" y="-1110" width="120" height="80" as="geometry" />
        </mxCell>
        <mxCell id="oqNWsSmZMiWXag8KqsjX-4" value="" style="edgeStyle=orthogonalEdgeStyle;rounded=0;orthogonalLoop=1;jettySize=auto;html=1;" edge="1" parent="1" source="oqNWsSmZMiWXag8KqsjX-5" target="oqNWsSmZMiWXag8KqsjX-8">
          <mxGeometry relative="1" as="geometry" />
        </mxCell>
        <mxCell id="oqNWsSmZMiWXag8KqsjX-5" value="a,b" style="shape=parallelogram;perimeter=parallelogramPerimeter;whiteSpace=wrap;html=1;fixedSize=1;" vertex="1" parent="1">
          <mxGeometry x="300" y="-940" width="120" height="60" as="geometry" />
        </mxCell>
        <mxCell id="oqNWsSmZMiWXag8KqsjX-6" value="" style="edgeStyle=orthogonalEdgeStyle;rounded=0;orthogonalLoop=1;jettySize=auto;html=1;" edge="1" parent="1" source="oqNWsSmZMiWXag8KqsjX-8" target="oqNWsSmZMiWXag8KqsjX-11">
          <mxGeometry relative="1" as="geometry" />
        </mxCell>
        <mxCell id="oqNWsSmZMiWXag8KqsjX-7" value="" style="edgeStyle=orthogonalEdgeStyle;rounded=0;orthogonalLoop=1;jettySize=auto;html=1;" edge="1" parent="1" source="oqNWsSmZMiWXag8KqsjX-8" target="oqNWsSmZMiWXag8KqsjX-15">
          <mxGeometry relative="1" as="geometry" />
        </mxCell>
        <mxCell id="oqNWsSmZMiWXag8KqsjX-8" value="a=0" style="rhombus;whiteSpace=wrap;html=1;" vertex="1" parent="1">
          <mxGeometry x="320" y="-810" width="80" height="80" as="geometry" />
        </mxCell>
        <mxCell id="oqNWsSmZMiWXag8KqsjX-9" value="" style="edgeStyle=orthogonalEdgeStyle;rounded=0;orthogonalLoop=1;jettySize=auto;html=1;" edge="1" parent="1" source="oqNWsSmZMiWXag8KqsjX-11" target="oqNWsSmZMiWXag8KqsjX-12">
          <mxGeometry relative="1" as="geometry" />
        </mxCell>
        <mxCell id="oqNWsSmZMiWXag8KqsjX-10" value="" style="edgeStyle=orthogonalEdgeStyle;rounded=0;orthogonalLoop=1;jettySize=auto;html=1;" edge="1" parent="1" source="oqNWsSmZMiWXag8KqsjX-11" target="oqNWsSmZMiWXag8KqsjX-13">
          <mxGeometry relative="1" as="geometry" />
        </mxCell>
        <mxCell id="oqNWsSmZMiWXag8KqsjX-11" value="b=0" style="rhombus;whiteSpace=wrap;html=1;" vertex="1" parent="1">
          <mxGeometry x="480" y="-810" width="80" height="80" as="geometry" />
        </mxCell>
        <mxCell id="oqNWsSmZMiWXag8KqsjX-12" value="vô số nghiệm" style="shape=parallelogram;perimeter=parallelogramPerimeter;whiteSpace=wrap;html=1;fixedSize=1;" vertex="1" parent="1">
          <mxGeometry x="620" y="-800" width="120" height="60" as="geometry" />
        </mxCell>
        <mxCell id="oqNWsSmZMiWXag8KqsjX-13" value="vô nghiệm" style="shape=parallelogram;perimeter=parallelogramPerimeter;whiteSpace=wrap;html=1;fixedSize=1;" vertex="1" parent="1">
          <mxGeometry x="460" y="-640" width="120" height="60" as="geometry" />
        </mxCell>
        <mxCell id="oqNWsSmZMiWXag8KqsjX-14" value="" style="edgeStyle=orthogonalEdgeStyle;rounded=0;orthogonalLoop=1;jettySize=auto;html=1;" edge="1" parent="1" source="oqNWsSmZMiWXag8KqsjX-15" target="oqNWsSmZMiWXag8KqsjX-17">
          <mxGeometry relative="1" as="geometry" />
        </mxCell>
        <mxCell id="oqNWsSmZMiWXag8KqsjX-15" value="x=-b/a" style="whiteSpace=wrap;html=1;" vertex="1" parent="1">
          <mxGeometry x="300" y="-690" width="120" height="60" as="geometry" />
        </mxCell>
        <mxCell id="oqNWsSmZMiWXag8KqsjX-16" value="" style="edgeStyle=orthogonalEdgeStyle;rounded=0;orthogonalLoop=1;jettySize=auto;html=1;" edge="1" parent="1" source="oqNWsSmZMiWXag8KqsjX-17">
          <mxGeometry relative="1" as="geometry">
            <mxPoint x="360" y="-420" as="targetPoint" />
          </mxGeometry>
        </mxCell>
        <mxCell id="oqNWsSmZMiWXag8KqsjX-17" value="x" style="shape=parallelogram;perimeter=parallelogramPerimeter;whiteSpace=wrap;html=1;fixedSize=1;" vertex="1" parent="1">
          <mxGeometry x="300" y="-550" width="120" height="60" as="geometry" />
        </mxCell>
        <mxCell id="oqNWsSmZMiWXag8KqsjX-18" value="end" style="ellipse;whiteSpace=wrap;html=1;" vertex="1" parent="1">
          <mxGeometry x="300" y="-420" width="120" height="80" as="geometry" />
        </mxCell>
        <mxCell id="oqNWsSmZMiWXag8KqsjX-19" value="Đ" style="text;html=1;align=center;verticalAlign=middle;resizable=0;points=[];autosize=1;strokeColor=none;fillColor=none;" vertex="1" parent="1">
          <mxGeometry x="415" y="-802" width="30" height="30" as="geometry" />
        </mxCell>
        <mxCell id="oqNWsSmZMiWXag8KqsjX-20" value="Đ" style="text;html=1;align=center;verticalAlign=middle;resizable=0;points=[];autosize=1;strokeColor=none;fillColor=none;" vertex="1" parent="1">
          <mxGeometry x="565" y="-802" width="30" height="30" as="geometry" />
        </mxCell>
        <mxCell id="oqNWsSmZMiWXag8KqsjX-21" value="S" style="text;html=1;align=center;verticalAlign=middle;resizable=0;points=[];autosize=1;strokeColor=none;fillColor=none;" vertex="1" parent="1">
          <mxGeometry x="515" y="-712" width="30" height="30" as="geometry" />
        </mxCell>
        <mxCell id="oqNWsSmZMiWXag8KqsjX-22" value="S" style="text;html=1;align=center;verticalAlign=middle;resizable=0;points=[];autosize=1;strokeColor=none;fillColor=none;" vertex="1" parent="1">
          <mxGeometry x="355" y="-732" width="30" height="30" as="geometry" />
        </mxCell>
        <mxCell id="oqNWsSmZMiWXag8KqsjX-23" value="" style="endArrow=classic;html=1;rounded=0;exitX=0.5;exitY=1;exitDx=0;exitDy=0;entryX=1.023;entryY=0.632;entryDx=0;entryDy=0;entryPerimeter=0;" edge="1" parent="1" source="oqNWsSmZMiWXag8KqsjX-13" target="oqNWsSmZMiWXag8KqsjX-18">
          <mxGeometry width="50" height="50" relative="1" as="geometry">
            <mxPoint x="470" y="-430" as="sourcePoint" />
            <mxPoint x="520" y="-290" as="targetPoint" />
            <Array as="points">
              <mxPoint x="520" y="-370" />
            </Array>
          </mxGeometry>
        </mxCell>
        <mxCell id="oqNWsSmZMiWXag8KqsjX-24" value="" style="endArrow=classic;html=1;rounded=0;exitX=0.5;exitY=1;exitDx=0;exitDy=0;entryX=0.5;entryY=1;entryDx=0;entryDy=0;" edge="1" parent="1" source="oqNWsSmZMiWXag8KqsjX-12" target="oqNWsSmZMiWXag8KqsjX-18">
          <mxGeometry width="50" height="50" relative="1" as="geometry">
            <mxPoint x="470" y="-430" as="sourcePoint" />
            <mxPoint x="680" y="-170" as="targetPoint" />
            <Array as="points">
              <mxPoint x="680" y="-270" />
              <mxPoint x="360" y="-270" />
            </Array>
          </mxGeometry>
        </mxCell>
      </root>
    </mxGraphModel>
  </diagram>
</mxfile>
